<svg width="14" height="24" viewBox="0 0 14 24" fill="none" xmlns="http://www.w3.org/2000/svg">
<path d="M4.13082 9.12969H4.63082V8.62969V5.90643C4.63082 4.21829 5.16054 2.87519 6.05576 1.95663C6.94965 1.03944 8.25202 0.500085 9.88656 0.5C9.88669 0.5 9.88682 0.5 9.88695 0.5L12.9878 0.504976V4.14755L10.9021 4.14829C10.9021 4.14829 10.902 4.14829 10.902 4.14829C10.1401 4.14832 9.52415 4.29171 9.13039 4.73771C8.74975 5.16886 8.69234 5.761 8.69234 6.32115V8.62969V9.12969H9.19234H12.842L12.8405 13.0544H9.19234H8.69234V13.5544V23.5H4.63082V13.5544V13.0544H4.13082H1.01221V9.12969H4.13082ZM12.9987 4.14755H12.9985C12.9986 4.14754 12.9987 4.14755 12.9987 4.14755Z" stroke="white"/>
</svg>
