<svg width="8" height="12" viewBox="0 0 8 12" fill="none" xmlns="http://www.w3.org/2000/svg">
<path d="M6.93538 0.141111L5.41257 0.138672C3.70174 0.138672 2.59613 1.27087 2.59613 3.02324V4.35321H1.06501C0.932702 4.35321 0.825562 4.46028 0.825562 4.59233V6.51932C0.825562 6.65138 0.932824 6.75832 1.06501 6.75832H2.59613V11.6207C2.59613 11.7528 2.70327 11.8597 2.83558 11.8597H4.83325C4.96556 11.8597 5.0727 11.7527 5.0727 11.6207V6.75832H6.86294C6.99524 6.75832 7.10238 6.65138 7.10238 6.51932L7.10312 4.59233C7.10312 4.52893 7.07783 4.4682 7.03299 4.42333C6.98816 4.37846 6.92707 4.35321 6.86355 4.35321H5.0727V3.22578C5.0727 2.68388 5.20207 2.40879 5.9093 2.40879L6.93514 2.40843C7.06732 2.40843 7.17446 2.30136 7.17446 2.16943V0.380109C7.17446 0.248294 7.06744 0.141355 6.93538 0.141111Z" fill="#4267B2"/>
</svg>
