<svg width="14" height="14" viewBox="0 0 14 14" fill="none" xmlns="http://www.w3.org/2000/svg">
<g clip-path="url(#clip0_334_1756)">
<path d="M7.00232 3.4043C5.01724 3.4043 3.41016 5.01313 3.41016 6.99646C3.41016 8.98155 5.01899 10.5886 7.00232 10.5886C8.98741 10.5886 10.5945 8.9798 10.5945 6.99646C10.5945 5.01138 8.98566 3.4043 7.00232 3.4043ZM7.00232 9.32805C5.71374 9.32805 4.67074 8.28446 4.67074 6.99646C4.67074 5.70846 5.71432 4.66488 7.00232 4.66488C8.29032 4.66488 9.33391 5.70846 9.33391 6.99646C9.33449 8.28446 8.29091 9.32805 7.00232 9.32805Z" fill="black"/>
<path d="M7.00232 3.4043C5.01724 3.4043 3.41016 5.01313 3.41016 6.99646C3.41016 8.98155 5.01899 10.5886 7.00232 10.5886C8.98741 10.5886 10.5945 8.9798 10.5945 6.99646C10.5945 5.01138 8.98566 3.4043 7.00232 3.4043ZM7.00232 9.32805C5.71374 9.32805 4.67074 8.28446 4.67074 6.99646C4.67074 5.70846 5.71432 4.66488 7.00232 4.66488C8.29032 4.66488 9.33391 5.70846 9.33391 6.99646C9.33449 8.28446 8.29091 9.32805 7.00232 9.32805Z" fill="url(#paint0_linear_334_1756)"/>
<path d="M9.88647 0.0439756C8.59847 -0.0161078 5.40822 -0.0131911 4.11905 0.0439756C2.98622 0.0970589 1.98697 0.370642 1.18138 1.17623C-0.164951 2.52256 0.00713257 4.33673 0.00713257 6.99731C0.00713257 9.72031 -0.144534 11.4925 1.18138 12.8184C2.53297 14.1694 4.37338 13.9926 7.00247 13.9926C9.6998 13.9926 10.6308 13.9944 11.5845 13.6251C12.8813 13.1217 13.8601 11.9626 13.9558 9.88072C14.0165 8.59214 14.013 5.40248 13.9558 4.11331C13.8403 1.65573 12.5214 0.165309 9.88647 0.0439756ZM11.9252 11.9276C11.0426 12.8102 9.81822 12.7315 6.98555 12.7315C4.06888 12.7315 2.8993 12.7746 2.04588 11.9189C1.06297 10.9406 1.24088 9.36973 1.24088 6.98798C1.24088 3.76506 0.910133 1.44398 4.14472 1.27831C4.88788 1.25206 5.10663 1.24331 6.97738 1.24331L7.00363 1.26081C10.1122 1.26081 12.5511 0.935309 12.6975 4.16931C12.7308 4.90723 12.7384 5.12889 12.7384 6.99673C12.7378 9.87956 12.7926 11.0561 11.9252 11.9276Z" fill="black"/>
<path d="M9.88647 0.0439756C8.59847 -0.0161078 5.40822 -0.0131911 4.11905 0.0439756C2.98622 0.0970589 1.98697 0.370642 1.18138 1.17623C-0.164951 2.52256 0.00713257 4.33673 0.00713257 6.99731C0.00713257 9.72031 -0.144534 11.4925 1.18138 12.8184C2.53297 14.1694 4.37338 13.9926 7.00247 13.9926C9.6998 13.9926 10.6308 13.9944 11.5845 13.6251C12.8813 13.1217 13.8601 11.9626 13.9558 9.88072C14.0165 8.59214 14.013 5.40248 13.9558 4.11331C13.8403 1.65573 12.5214 0.165309 9.88647 0.0439756ZM11.9252 11.9276C11.0426 12.8102 9.81822 12.7315 6.98555 12.7315C4.06888 12.7315 2.8993 12.7746 2.04588 11.9189C1.06297 10.9406 1.24088 9.36973 1.24088 6.98798C1.24088 3.76506 0.910133 1.44398 4.14472 1.27831C4.88788 1.25206 5.10663 1.24331 6.97738 1.24331L7.00363 1.26081C10.1122 1.26081 12.5511 0.935309 12.6975 4.16931C12.7308 4.90723 12.7384 5.12889 12.7384 6.99673C12.7378 9.87956 12.7926 11.0561 11.9252 11.9276Z" fill="url(#paint1_linear_334_1756)"/>
<path d="M10.7359 4.1007C11.1995 4.1007 11.5753 3.72489 11.5753 3.26129C11.5753 2.79769 11.1995 2.42188 10.7359 2.42188C10.2723 2.42188 9.89648 2.79769 9.89648 3.26129C9.89648 3.72489 10.2723 4.1007 10.7359 4.1007Z" fill="black"/>
<path d="M10.7359 4.1007C11.1995 4.1007 11.5753 3.72489 11.5753 3.26129C11.5753 2.79769 11.1995 2.42188 10.7359 2.42188C10.2723 2.42188 9.89648 2.79769 9.89648 3.26129C9.89648 3.72489 10.2723 4.1007 10.7359 4.1007Z" fill="url(#paint2_linear_334_1756)"/>
</g>
<defs>
<linearGradient id="paint0_linear_334_1756" x1="4.93683" y1="9.78039" x2="9.69645" y2="4.84116" gradientUnits="userSpaceOnUse">
<stop stop-color="#EEA054"/>
<stop offset="0.502762" stop-color="#D64763"/>
<stop offset="1" stop-color="#B62A99"/>
</linearGradient>
<linearGradient id="paint1_linear_334_1756" x1="2.975" y1="12.4252" x2="12.2502" y2="2.80021" gradientUnits="userSpaceOnUse">
<stop stop-color="#EEA054"/>
<stop offset="0.502762" stop-color="#D64763"/>
<stop offset="1" stop-color="#B62A99"/>
</linearGradient>
<linearGradient id="paint2_linear_334_1756" x1="10.2532" y1="3.91184" x2="11.3655" y2="2.75764" gradientUnits="userSpaceOnUse">
<stop stop-color="#EEA054"/>
<stop offset="0.502762" stop-color="#D64763"/>
<stop offset="1" stop-color="#B62A99"/>
</linearGradient>
<clipPath id="clip0_334_1756">
<rect width="14" height="14" fill="white"/>
</clipPath>
</defs>
</svg>
