<svg width="22" height="22" viewBox="0 0 22 22" fill="none" xmlns="http://www.w3.org/2000/svg">
<path d="M11 6.07143C10.0252 6.07143 9.07233 6.36048 8.26183 6.90204C7.45133 7.4436 6.81963 8.21334 6.44659 9.11392C6.07356 10.0145 5.97596 11.0055 6.16613 11.9615C6.3563 12.9176 6.8257 13.7958 7.51497 14.485C8.20425 15.1743 9.08243 15.6437 10.0385 15.8339C10.9945 16.024 11.9855 15.9264 12.8861 15.5534C13.7867 15.1804 14.5564 14.5487 15.098 13.7382C15.6395 12.9277 15.9286 11.9748 15.9286 11C15.9286 9.69286 15.4093 8.43926 14.485 7.51497C13.5607 6.59069 12.3071 6.07143 11 6.07143ZM11 14.6429C10.2795 14.6429 9.5752 14.4292 8.97614 14.0289C8.37707 13.6286 7.91016 13.0597 7.63444 12.3941C7.35872 11.7284 7.28658 10.996 7.42714 10.2893C7.5677 9.58267 7.91465 8.93357 8.42411 8.42411C8.93357 7.91465 9.58267 7.5677 10.2893 7.42714C10.996 7.28658 11.7284 7.35872 12.3941 7.63444C13.0597 7.91016 13.6286 8.37707 14.0289 8.97614C14.4292 9.5752 14.6429 10.2795 14.6429 11C14.64 11.9653 14.2553 12.8902 13.5728 13.5728C12.8902 14.2553 11.9653 14.64 11 14.6429ZM15.7143 0.5H6.28571C4.75125 0.5 3.27963 1.10956 2.1946 2.1946C1.10956 3.27963 0.5 4.75125 0.5 6.28571V15.7143C0.5 17.2488 1.10956 18.7204 2.1946 19.8054C3.27963 20.8904 4.75125 21.5 6.28571 21.5H15.7143C17.2488 21.5 18.7204 20.8904 19.8054 19.8054C20.8904 18.7204 21.5 17.2488 21.5 15.7143V6.28571C21.5 4.75125 20.8904 3.27963 19.8054 2.1946C18.7204 1.10956 17.2488 0.5 15.7143 0.5ZM20.2143 15.7143C20.2143 16.9078 19.7402 18.0524 18.8963 18.8963C18.0524 19.7402 16.9078 20.2143 15.7143 20.2143H6.28571C5.09224 20.2143 3.94765 19.7402 3.10373 18.8963C2.25982 18.0524 1.78571 16.9078 1.78571 15.7143V6.28571C1.78571 5.09224 2.25982 3.94765 3.10373 3.10373C3.94765 2.25982 5.09224 1.78571 6.28571 1.78571H15.7143C16.9078 1.78571 18.0524 2.25982 18.8963 3.10373C19.7402 3.94765 20.2143 5.09224 20.2143 6.28571V15.7143ZM17.6429 5.42857C17.6429 5.64048 17.58 5.84763 17.4623 6.02383C17.3446 6.20002 17.1772 6.33735 16.9814 6.41844C16.7857 6.49954 16.5702 6.52075 16.3624 6.47941C16.1546 6.43807 15.9637 6.33603 15.8138 6.18619C15.664 6.03634 15.5619 5.84543 15.5206 5.6376C15.4792 5.42976 15.5005 5.21433 15.5816 5.01855C15.6627 4.82278 15.8 4.65544 15.9762 4.53771C16.1524 4.41998 16.3595 4.35714 16.5714 4.35714C16.8556 4.35714 17.1281 4.47003 17.329 4.67096C17.53 4.87189 17.6429 5.14441 17.6429 5.42857Z" fill="white"/>
</svg>
