<svg width="14" height="14" viewBox="0 0 14 14" fill="none" xmlns="http://www.w3.org/2000/svg">
<g clip-path="url(#clip0_24_333)">
<path d="M13.9864 4.11604C13.9536 3.37216 13.8333 2.86076 13.661 2.41762C13.4832 1.94723 13.2097 1.5261 12.8514 1.17601C12.5013 0.820473 12.0774 0.544204 11.6125 0.369213C11.1668 0.196892 10.6581 0.0765988 9.91418 0.0438013C9.16475 0.00822609 8.92684 0 7.02608 0C5.12532 0 4.8874 0.00822609 4.14075 0.0410236C3.39688 0.0738212 2.88547 0.194221 2.44244 0.366435C1.97195 0.544204 1.55082 0.817695 1.20073 1.17601C0.845191 1.5261 0.56903 1.95001 0.393932 2.41495C0.221611 2.86076 0.101318 3.36939 0.0685205 4.11326C0.0329453 4.86269 0.0247192 5.10061 0.0247192 7.00137C0.0247192 8.90213 0.0329453 9.14005 0.0657428 9.8867C0.0985403 10.6306 0.21894 11.142 0.391261 11.5851C0.56903 12.0555 0.845191 12.4766 1.20073 12.8267C1.55082 13.1823 1.97473 13.4585 2.43966 13.6335C2.88547 13.8058 3.3941 13.9261 4.13808 13.9589C4.88463 13.9918 5.12265 14 7.02341 14C8.92417 14 9.16208 13.9918 9.90873 13.9589C10.6526 13.9261 11.164 13.8058 11.607 13.6335C12.5479 13.2698 13.2918 12.5259 13.6556 11.5851C13.8278 11.1393 13.9482 10.6306 13.981 9.8867C14.0138 9.14005 14.022 8.90213 14.022 7.00137C14.022 5.10061 14.0192 4.86269 13.9864 4.11604ZM12.7257 9.832C12.6956 10.5157 12.5807 10.8849 12.485 11.1311C12.2497 11.741 11.7657 12.225 11.1558 12.4603C10.9096 12.556 10.5378 12.6709 9.85671 12.7009C9.11828 12.7338 8.89682 12.7419 7.02886 12.7419C5.16089 12.7419 4.93665 12.7338 4.2009 12.7009C3.51717 12.6709 3.14796 12.556 2.90182 12.4603C2.59831 12.3481 2.32204 12.1703 2.0978 11.9379C1.86533 11.7109 1.68756 11.4374 1.57539 11.1339C1.47967 10.8877 1.36482 10.5157 1.3348 9.83478C1.3019 9.09635 1.29378 8.87478 1.29378 7.00682C1.29378 5.13885 1.3019 4.91461 1.3348 4.17896C1.36482 3.49524 1.47967 3.12602 1.57539 2.87988C1.68756 2.57626 1.86533 2.3001 2.10058 2.07575C2.32749 1.84329 2.60098 1.66552 2.9046 1.55345C3.15074 1.45773 3.52273 1.34288 4.20368 1.31276C4.9421 1.27996 5.16367 1.27173 7.03153 1.27173C8.90227 1.27173 9.12373 1.27996 9.85948 1.31276C10.5432 1.34288 10.9124 1.45773 11.1586 1.55345C11.4621 1.66552 11.7383 1.84329 11.9626 2.07575C12.1951 2.30277 12.3728 2.57626 12.485 2.87988C12.5807 3.12602 12.6956 3.49791 12.7257 4.17896C12.7585 4.91739 12.7667 5.13885 12.7667 7.00682C12.7667 8.87478 12.7585 9.09357 12.7257 9.832Z" fill="white"/>
<path d="M7.02609 3.40495C5.04061 3.40495 3.42969 5.01577 3.42969 7.00136C3.42969 8.98694 5.04061 10.5978 7.02609 10.5978C9.01168 10.5978 10.6225 8.98694 10.6225 7.00136C10.6225 5.01577 9.01168 3.40495 7.02609 3.40495ZM7.02609 9.33426C5.73801 9.33426 4.69319 8.28954 4.69319 7.00136C4.69319 5.71317 5.73801 4.66846 7.02609 4.66846C8.31428 4.66846 9.35899 5.71317 9.35899 7.00136C9.35899 8.28954 8.31428 9.33426 7.02609 9.33426Z" fill="white"/>
<path d="M11.6044 3.26276C11.6044 3.72642 11.2284 4.10236 10.7646 4.10236C10.301 4.10236 9.92505 3.72642 9.92505 3.26276C9.92505 2.799 10.301 2.42316 10.7646 2.42316C11.2284 2.42316 11.6044 2.799 11.6044 3.26276Z" fill="white"/>
</g>
<defs>
<clipPath id="clip0_24_333">
<rect width="14" height="14" fill="white" transform="translate(0.00012207)"/>
</clipPath>
</defs>
</svg>
