<svg width="40" height="30" viewBox="0 0 40 30" fill="none" xmlns="http://www.w3.org/2000/svg">
<path d="M33.75 2.5C34.0815 2.5 34.3995 2.6317 34.6339 2.86612C34.8683 3.10054 35 3.41848 35 3.75V22.5H5V3.75C5 3.41848 5.1317 3.10054 5.36612 2.86612C5.60054 2.6317 5.91848 2.5 6.25 2.5H33.75ZM6.25 0C5.25544 0 4.30161 0.395088 3.59835 1.09835C2.89509 1.80161 2.5 2.75544 2.5 3.75V25H37.5V3.75C37.5 2.75544 37.1049 1.80161 36.4016 1.09835C35.6984 0.395088 34.7446 0 33.75 0H6.25ZM0 26.25H40C40 27.2446 39.6049 28.1984 38.9016 28.9017C38.1984 29.6049 37.2446 30 36.25 30H3.75C2.75544 30 1.80161 29.6049 1.09835 28.9017C0.395088 28.1984 0 27.2446 0 26.25H0Z" fill="white"/>
</svg>
