<svg width="22" height="22" viewBox="0 0 22 22" fill="none" xmlns="http://www.w3.org/2000/svg">
<path d="M8.60611 13.3651C9.50611 14.2281 10.5611 14.9301 11.7271 15.4281L12.2461 15.6491L13.8411 14.0291C14.2371 13.6271 14.8101 13.4531 15.3631 13.5691L19.2271 14.3781C19.8811 14.5171 20.3481 15.0941 20.3481 15.7621V18.5441C20.3481 19.5391 19.5421 20.3451 18.5471 20.3451H17.6921C13.7581 20.3451 9.87611 19.0421 6.94011 16.4241C6.69811 16.2091 6.46311 15.9861 6.23411 15.7581L6.27111 15.7951C6.04211 15.5661 5.82011 15.3311 5.60511 15.0891C2.98611 12.1541 1.68311 8.27213 1.68311 4.33813V3.48313C1.68311 2.48813 2.48911 1.68213 3.48411 1.68213H6.26611C6.93411 1.68213 7.51111 2.14913 7.6501 2.80313L8.46011 6.66713C8.57511 7.21913 8.40211 7.79313 8.00011 8.18913L6.38011 9.78413L6.60111 10.3031C7.09911 11.4681 7.74211 12.4651 8.60611 13.3651Z" stroke="white" stroke-width="1.5" stroke-miterlimit="10" stroke-linecap="round" stroke-linejoin="round"/>
</svg>
