<svg width="22" height="22" viewBox="0 0 22 22" fill="none" xmlns="http://www.w3.org/2000/svg">
<path d="M8.60601 13.365C9.50601 14.228 10.561 14.93 11.727 15.428L12.246 15.649L13.841 14.029C14.237 13.627 14.81 13.453 15.363 13.569L19.227 14.378C19.881 14.517 20.348 15.094 20.348 15.762V18.544C20.348 19.539 19.542 20.345 18.547 20.345H17.692C13.758 20.345 9.87601 19.042 6.94001 16.424C6.69801 16.209 6.46301 15.986 6.23401 15.758L6.27101 15.795C6.04201 15.566 5.82001 15.331 5.60501 15.089C2.98601 12.154 1.68301 8.272 1.68301 4.338V3.483C1.68301 2.488 2.48901 1.682 3.48401 1.682H6.26601C6.93401 1.682 7.51101 2.149 7.65001 2.803L8.46001 6.667C8.57501 7.219 8.40201 7.793 8.00001 8.189L6.38001 9.784L6.60101 10.303C7.09901 11.468 7.74201 12.465 8.60601 13.365Z" stroke="white" stroke-width="1.5" stroke-miterlimit="10" stroke-linecap="round" stroke-linejoin="round"/>
</svg>
