<svg width="24" height="22" viewBox="0 0 24 22" fill="none" xmlns="http://www.w3.org/2000/svg">
<path d="M23.3655 0.8928C23.1191 0.696203 22.8219 0.567453 22.5057 0.520201C22.1894 0.472949 21.8657 0.508955 21.5689 0.624402L1.09265 8.58062C0.761765 8.7115 0.48006 8.93614 0.284933 9.22474C0.0898052 9.51333 -0.00951514 9.85221 0.000156557 10.1964C0.00982825 10.5406 0.128035 10.8738 0.339083 11.1518C0.550132 11.4299 0.844041 11.6395 1.18179 11.753L5.60002 13.2292L7.99427 20.8477C7.99884 20.8631 8.0137 20.873 8.02055 20.8873C8.04522 20.9481 8.08124 21.004 8.12684 21.0523C8.19611 21.1268 8.28554 21.1812 8.38512 21.2096C8.39655 21.214 8.40455 21.2239 8.41598 21.2261H8.42283L8.42626 21.2272C8.51468 21.2455 8.60655 21.241 8.69254 21.214C8.70169 21.2118 8.71083 21.2118 8.72112 21.2085C8.80368 21.1806 8.8784 21.1347 8.9394 21.0743C8.94625 21.0666 8.95768 21.0655 8.96454 21.0589L12.4079 17.4003L17.433 21.1458C17.7381 21.3757 18.1141 21.5 18.5015 21.5C19.3404 21.5 20.0638 20.9346 20.2364 20.1459L23.9643 2.52628C24.0276 2.22717 24.0053 1.91714 23.8998 1.62927C23.7943 1.3414 23.6097 1.08648 23.3655 0.8917V0.8928ZM9.24339 14.6757L8.4354 18.4563L6.74971 13.0906L15.1096 8.89962L9.39882 14.3974C9.31974 14.4734 9.26568 14.5702 9.24339 14.6757ZM19.1164 19.9248C19.0949 20.0246 19.0472 20.1173 18.9778 20.1942C18.9083 20.271 18.8195 20.3294 18.7198 20.3637C18.6226 20.3997 18.5173 20.4108 18.4143 20.3957C18.3113 20.3807 18.2142 20.3401 18.1324 20.2779L12.6891 16.22C12.5753 16.1355 12.4326 16.0953 12.2894 16.1076C12.1462 16.1198 12.013 16.1835 11.9165 16.2861L9.51996 18.8281L10.3268 15.0585L18.5427 7.14954C18.6389 7.05663 18.6975 6.93367 18.7078 6.80287C18.7181 6.67206 18.6795 6.54201 18.5989 6.4362C18.5183 6.33038 18.4011 6.25576 18.2684 6.22581C18.1358 6.19586 17.9963 6.21254 17.8753 6.27285L6.03201 12.2106L1.5555 10.7124C1.43681 10.6747 1.33329 10.6023 1.25935 10.5053C1.1854 10.4083 1.14471 10.2915 1.14294 10.1712C1.13724 10.0498 1.17093 9.92979 1.23933 9.82769C1.30773 9.72559 1.40744 9.64651 1.52465 9.60142L21.9975 1.64519C22.1024 1.60229 22.2177 1.58841 22.3303 1.60513C22.443 1.62184 22.5486 1.66848 22.6352 1.73979C22.7213 1.80688 22.7864 1.89569 22.8231 1.99631C22.8599 2.09692 22.8668 2.20539 22.8432 2.30959L19.1164 19.9259V19.9248Z" fill="white"/>
</svg>
