<svg width="16" height="12" viewBox="0 0 16 12" fill="none" xmlns="http://www.w3.org/2000/svg">
<path d="M15.4999 1.41976C14.9478 1.66069 14.3554 1.82409 13.733 1.89703C14.3685 1.52223 14.855 0.927746 15.0856 0.221545C14.4894 0.568635 13.8314 0.820666 13.1303 0.957291C12.5689 0.367415 11.7703 0 10.8845 0C9.18518 0 7.80733 1.357 7.80733 3.02972C7.80733 3.26695 7.83451 3.49866 7.88701 3.72023C5.33004 3.59374 3.0627 2.38722 1.5452 0.553862C1.27994 1.00067 1.12903 1.52129 1.12903 2.07704C1.12903 3.12849 1.67268 4.05624 2.49752 4.59902C1.99324 4.58241 1.51895 4.44579 1.10374 4.21869V4.25654C1.10374 5.72432 2.16478 6.94931 3.57167 7.22811C3.3139 7.29642 3.04209 7.33427 2.76089 7.33427C2.5622 7.33427 2.37004 7.31489 2.18164 7.27795C2.57342 8.48264 3.70946 9.35868 5.05544 9.3827C4.00284 10.1951 2.6756 10.6779 1.23403 10.6779C0.985654 10.6779 0.741001 10.6631 0.500122 10.6363C1.86204 11.4976 3.4789 11.9998 5.21666 11.9998C10.8771 11.9998 13.9711 7.38228 13.9711 3.37775L13.9608 2.98542C14.5654 2.56075 15.0884 2.02719 15.4999 1.41976Z" fill="#1DA1F2"/>
</svg>
