<svg width="26" height="20" viewBox="0 0 26 20" fill="none" xmlns="http://www.w3.org/2000/svg">
<path fill-rule="evenodd" clip-rule="evenodd" d="M21.592 2.64323C15.9346 1.65239 10.0656 1.65239 4.40818 2.64323C2.98287 2.89286 1.9001 4.17683 1.9001 5.70348V14.3267C1.9001 15.9035 3.03263 17.2022 4.50209 17.4012L6.35253 17.6518C10.7652 18.2495 15.235 18.2495 19.6477 17.6518L21.4981 17.4012C22.9676 17.2022 24.1001 15.9035 24.1001 14.3267V5.70348C24.1001 4.17683 23.0173 2.89286 21.592 2.64323ZM4.09765 0.870219C9.96051 -0.15661 16.0397 -0.15661 21.9025 0.870219C24.2152 1.27527 25.9001 3.32938 25.9001 5.70348V14.3267C25.9001 16.7652 24.1399 18.8598 21.7397 19.1849L19.8893 19.4356C15.3162 20.0549 10.684 20.0549 6.11094 19.4356L4.2605 19.1849C1.86031 18.8598 0.100098 16.7652 0.100098 14.3267V5.70348C0.100098 3.32938 1.78496 1.27527 4.09765 0.870219ZM10.4281 5.36459C10.7139 5.2059 11.0634 5.21471 11.3409 5.38762L17.2679 9.08072C17.5316 9.24506 17.6919 9.53383 17.6919 9.84458C17.6919 10.1553 17.5316 10.4441 17.2679 10.6084L11.3409 14.3015C11.0634 14.4744 10.7139 14.4833 10.4281 14.3246C10.1422 14.1659 9.96491 13.8646 9.96491 13.5377V6.15147C9.96491 5.82452 10.1422 5.52328 10.4281 5.36459ZM11.7649 7.77267V11.9165L15.0901 9.84458L11.7649 7.77267Z" fill="white"/>
</svg>
